<?xml version="1.0" encoding="utf-8"?>
<!-- Generator: Adobe Illustrator 15.0.0, SVG Export Plug-In  -->
<!DOCTYPE svg PUBLIC "-//W3C//DTD SVG 1.1//EN" "http://www.w3.org/Graphics/SVG/1.1/DTD/svg11.dtd" [
	<!ENTITY ns_flows "http://ns.adobe.com/Flows/1.0/">
]>
<svg version="1.1"
	 xmlns="http://www.w3.org/2000/svg" xmlns:xlink="http://www.w3.org/1999/xlink" xmlns:a="http://ns.adobe.com/AdobeSVGViewerExtensions/3.0/"
	 x="0px" y="0px" width="247px" height="247px" viewBox="0 0 247 247" enable-background="new 0 0 247 247" xml:space="preserve">
<defs>
</defs>
<path fill-rule="evenodd" clip-rule="evenodd" fill="#38261E" d="M34.922,0.633c-2.666,2-7.721,1.611-8.999,5
	c-3.859,2.06-7.908,8.411-5,13.998c0.582,1.992,6.673,7.195,2,7.999c-9.333-3.647-21.077,4.235-17.998,12.999
	c1.772,14.226,15.553,16.443,14.998,32.996C18.746,60.677-12.488,41.435,5.926,27.629c3.157-2.367,7.233-1.872,12.999-3
	C16.285,14.442,20.725-3.603,34.922,0.633z"/>
<path fill-rule="evenodd" clip-rule="evenodd" fill="#A25421" d="M115.913,21.63c2.279,1.373,3.759-2.578,4,0
	c-1.839,3.738-8.145,0.206-11.999,2c-1.008-3.007,2.228-1.771,4-2C113.246,21.63,114.579,21.63,115.913,21.63z"/>
<path fill-rule="evenodd" clip-rule="evenodd" fill="#38261E" d="M151.908,29.629c-11.164,0.074-28.45,1.042-39.995,0
	c2.691-1.458,5.614-0.522,10.999-1C133.049,27.735,142.978,27.143,151.908,29.629z"/>
<path fill-rule="evenodd" clip-rule="evenodd" fill="#38261E" d="M92.916,29.629c6.307-0.025,13.061,0.396,17.998-1
	c0,0.333,0,0.667,0,1c-7.608,2.896-15.228,1.593-23.997,0C88.916,29.629,90.916,29.629,92.916,29.629z"/>
<path fill-rule="evenodd" clip-rule="evenodd" fill="#38261E" d="M156.908,29.629c2.377-1.66,11.62-1.66,13.998,0
	C166.24,29.629,161.574,29.629,156.908,29.629z"/>
<path fill-rule="evenodd" clip-rule="evenodd" fill="#38261E" d="M182.904,29.629c-4.097-1.041-8.176,3.08-10.998,0
	c3.548-0.601,5.026-1.109,10.998-1C182.904,28.963,182.904,29.296,182.904,29.629z"/>
<path fill-rule="evenodd" clip-rule="evenodd" d="M182.904,29.629c3.775-0.935,4.694-0.056,6.999-1
	c4.288,4.986,17.325-0.31,21.998,2c-0.015,60.677,0.02,126.626,0,183.977c-5.267,3.245-17.777,0.356-25.997,3c-1.333,0-2.666,0-4,0
	c-12.313-4.153-25.73-1.729-39.994-1c-1.667,0-3.333,0-5,0c-8.777-2.555-23.25,0.586-30.996-3c34.662,0,69.325,0,103.987,0
	c2.333-57.993,0.333-120.317,1-179.977c-60.326,0-120.651,0-180.978,0c0,59.659,0,119.319,0,178.977
	c22.665,2.332,49.66,0.335,73.991,1c-7.803,3.211-12.35-0.819-17.998,3c-5.785-0.651-7.213-0.651-12.998,0
	c-3.503-1.8-13.442-1.472-16.998,0c-0.333,0-0.667,0-1,0c-4,0-7.999,0-11.999,0c-3.459-2.029-10.693-2.802-14.998-1
	c-1.5-9.45,1.751-21.097-1-32.996c0-0.333,0-0.666,0-1c1.661-2.706,1.661-12.292,0-14.998c1.283-1.313,1.283-3.686,0-4.999
	c2.326-8.006,0.338-20.325,1-29.996c0-1,0-2,0-3c0-9.665,0-19.331,0-28.996c0-1.667,0-3.333,0-5c0.666-20.665-1.332-43.993,1-62.992
	c17.09-0.649,34.977,1.543,46.994-2c3.666,0,7.333,0,10.999,0c8.77,1.593,16.389,2.896,23.997,0c0.333,0,0.667,0,1,0
	c11.544,1.042,28.831,0.074,39.995,0c1.667,0,3.333,0,5,0c4.666,0,9.332,0,13.998,0c0.333,0,0.666,0,1,0
	C174.728,32.709,178.807,28.589,182.904,29.629z"/>
<path fill-rule="evenodd" clip-rule="evenodd" fill="#38261E" d="M75.917,29.629c-12.017,3.543-29.904,1.35-46.994,2
	c3.025-2.307,10.313-0.352,14.998-1c2.667,0,5.333,0,7.999,0C59.824,30.2,67.067,29.111,75.917,29.629z"/>
<path fill-rule="evenodd" clip-rule="evenodd" fill="#804822" d="M214.9,37.628c0.333,0,0.667,0,1,0
	c-0.651,5.348,1.313,13.311-1,16.998C214.9,48.96,214.9,43.294,214.9,37.628z"/>
<path fill-rule="evenodd" clip-rule="evenodd" fill="#804822" d="M213.9,59.625c-0.633,3.366,1.289,9.287-1,10.999
	C213.534,67.258,211.612,61.337,213.9,59.625z"/>
<path fill-rule="evenodd" clip-rule="evenodd" fill="#804822" d="M212.9,72.624c2.308,3.025,0.353,10.313,1,14.998
	c-0.333,0-0.666,0-1,0C212.9,82.623,212.9,77.624,212.9,72.624z"/>
<path fill-rule="evenodd" clip-rule="evenodd" fill="#38261E" d="M19.924,74.624c3.062,3.128-0.875,7.741,0,11.999
	c-0.61-0.057-1.184-0.149-1-1C19.581,80.417,18.645,77.494,19.924,74.624z"/>
<path fill-rule="evenodd" clip-rule="evenodd" fill="#804822" d="M212.9,96.621c2.169-0.168,0.453,3.546,1,4.999
	c0,3.333,0,6.666,0,9.999C211.593,108.594,213.547,101.306,212.9,96.621z"/>
<path fill-rule="evenodd" clip-rule="evenodd" fill="#38261E" d="M26.924,111.619c0.638-3.695-1.295-9.96,1-11.999
	c0,9.666,0,19.331,0,28.996c-0.61-0.057-1.184-0.149-1-1c0-1.666,0-3.333,0-4.999C26.924,118.952,26.924,115.285,26.924,111.619z"/>
<path fill-rule="evenodd" clip-rule="evenodd" fill="#A25421" d="M213.9,101.62c1.657,1.4,1.657,9.599,0,10.999c0-0.333,0-0.667,0-1
	C213.9,108.286,213.9,104.953,213.9,101.62z"/>
<path fill-rule="evenodd" clip-rule="evenodd" fill="#804822" d="M10.926,109.619c0.535,3.868-1.785,4.881-1,8.999
	c-2.315-2.849-0.197-7.497,0-8.999C10.259,109.619,10.592,109.619,10.926,109.619z"/>
<path fill-rule="evenodd" clip-rule="evenodd" fill="#A25421" d="M26.924,111.619c0,3.666,0,7.333,0,10.999
	c-1.122,0.102-1.557-1.454-2,0C22.031,119.333,26.498,114.903,26.924,111.619z"/>
<path fill-rule="evenodd" clip-rule="evenodd" fill="#A25421" d="M218.9,122.618c0.779-0.221,1.162-0.837,1-2
	c1.891-0.224,2.206,1.127,3.999,1c-0.914,1.753-1.858,3.474-4.999,3C218.9,123.951,218.9,123.284,218.9,122.618z"/>
<path fill-rule="evenodd" clip-rule="evenodd" fill="#38261E" d="M26.924,138.616c0.595-2.071-1.236-6.568,1-6.999
	c-0.661,9.671,1.326,21.99-1,29.996c0-3.999,0-7.999,0-11.998c0-0.334,0-0.667,0-1c0-2.667,0-5.333,0-7.999
	C26.924,139.949,26.924,139.283,26.924,138.616z"/>
<path fill-rule="evenodd" clip-rule="evenodd" fill="#804822" d="M213.9,158.613c0,5,0,9.999,0,14.998
	C212.24,170.906,212.24,161.319,213.9,158.613z"/>
<path fill-rule="evenodd" clip-rule="evenodd" fill="#38261E" d="M26.924,166.612c1.661,2.706,1.661,12.292,0,14.998
	c-1.738-4.998,0.525-5.68,0-12.998C26.924,167.946,26.924,167.279,26.924,166.612z"/>
<path fill-rule="evenodd" clip-rule="evenodd" fill="#38261E" d="M103.914,213.606c0.667,0,1.333,0,2,0
	c7.746,3.586,22.219,0.445,30.996,3c-2.666,0-5.332,0-7.999,0c-8.999,0-17.998,0-26.997,0c-3.79-1.172-8.458,0.467-15.998,0
	C91.564,212.787,96.111,216.817,103.914,213.606z"/>
<path fill-rule="evenodd" clip-rule="evenodd" fill="#38261E" d="M72.918,216.606c-3.197,0.201-14.073,0.304-16.998,0
	C59.476,215.134,69.415,214.806,72.918,216.606z"/>
<path fill-rule="evenodd" clip-rule="evenodd" fill="#804822" d="M125.912,217.606c-7.674-0.659-17.987,1.322-23.998-1
	c8.999,0,17.998,0,26.997,0C128.743,217.771,127.331,217.692,125.912,217.606z"/>
<path fill-rule="evenodd" clip-rule="evenodd" fill="#804822" d="M228.898,223.605c2.995-0.657-0.956-2.137,0-3.999
	c1.742-0.075,3.11,0.223,4,0.999c0,0.334,0,0.667,0,1c-0.056,3.611-5.261,2.072-6.999,4c-1,0-2,0-3,0
	c0.396-1.94-4.554-1.461-2.999,1c-2.021-1.578-2.652-3.577-2-6c3.491,0.842,5.323,3.342,9.999,3
	C228.232,223.605,228.565,223.605,228.898,223.605z"/>
<path fill-rule="evenodd" clip-rule="evenodd" fill="#804822" d="M159.907,221.605c1.078-1.654,8.921-1.654,9.999,0
	C166.573,221.605,163.24,221.605,159.907,221.605z"/>
<path fill-rule="evenodd" clip-rule="evenodd" fill="#804822" d="M137.91,230.604c-0.186,1.48-2.416,0.917-3.999,1
	c-1.594-1.578,0.483-4.591,2.999-4.999C136.363,228.476,132.915,231.421,137.91,230.604z"/>
<path fill-rule="evenodd" clip-rule="evenodd" fill="#38261E" d="M17.925,87.622c1.915,7.594-6.544,13.443-6.999,21.997
	c-0.333,0-0.667,0-1,0c-0.197,1.502-2.315,6.15,0,8.999c2.182,8.416,3.311,12.034,0,19.998c-1.657,1.4-1.657,9.599,0,10.999
	c7.074,11.952,12.911,35.958-1,44.994c19.71-17.675-11.785-45.999,3-63.992C-0.01,117.05,13.065,99.343,17.925,87.622z"/>
<path fill-rule="evenodd" clip-rule="evenodd" fill="#38261E" d="M5.926,197.608c-4.854,7.821-5.808,22.04,5,23.997
	c0.309,1.357,2.503,0.83,4,1C0.192,229.433-5.191,202.291,5.926,197.608z"/>
<path fill-rule="evenodd" clip-rule="evenodd" fill="#38261E" d="M17.925,237.603c2.613,2.72,5.151,5.515,7.999,7.999
	C22.017,244.176,19.351,241.509,17.925,237.603z"/>
<path fill-rule="evenodd" clip-rule="evenodd" fill="#38261E" d="M222.899,225.605c-1.865,3.974,0.991,9.451-2,13.998
	c-13.063,19.865-36.529-15.044-50.993-16.998c-23.203-3.135-34.565,24.132-51.994,5c-9.117,14.261-23.708-2.124-37.995-3
	c-20.748-1.272-30.679,15.566-45.994,21.997c13.657-13.161,35.98-32.25,60.992-18.997c3.495,3.738,15.545,6.503,17.998,0
	c3.51,0.586,3.288-4.727,5.999-2c2.525,4.475,7.55,6.448,14.999,5.999c1.583-0.083,3.813,0.48,3.999-1
	c7.819-2.513,12.549-8.115,21.997-8.999c3.333,0,6.666,0,9.999,0c12.787,1.545,18.768,9.896,26.997,15.998
	c3.305,4.428,13.071,7.03,18.997,3c4.386-1.638,6.277-8.747,4-13.998C218.345,224.144,223.295,223.665,222.899,225.605z"/>
<path fill-rule="evenodd" clip-rule="evenodd" fill="#38261E" d="M229.898,117.618c-0.445,2.555-1.402,4.597-2.999,6
	c14.823,9.512,0.681,22.883-3,37.995c-3.084,12.664,0.209,24.877,5.999,33.996c4.917,7.743,15.516,19.753,3,29.996
	c-2.333,0-4.666,0-6.999,0c1.738-1.928,6.943-0.389,6.999-4c6.479-5.751,2.878-16.222-2-20.997c-0.443-0.89-0.878-1.788-2-2
	c-8.564-12.447-9.823-30.595-3.999-45.994c1.909-2.09,3.225-4.774,3.999-7.999c0-0.333,0-0.666,0-1
	c5.416-5.88-0.945-14.254-3.999-17.998C225.761,122.147,228.016,120.069,229.898,117.618z"/>
<path fill-rule="evenodd" clip-rule="evenodd" fill="#38261E" d="M226.899,57.626c5.922-4.41,10.075-10.588,15.998-14.999
	c-9.88,12.656-22.879,19.445-21.998,35.996c0.664,12.469,19.949,21.287,8.999,37.996c-2.23-0.147,1.298-2.52,0-5
	c0-0.333,0-0.667,0-1C230.156,91.515,210.394,75.124,226.899,57.626z"/>
<path fill-rule="evenodd" clip-rule="evenodd" fill="#804822" d="M244.896,29.629c4.269,4.064-0.35,9.138-1.999,12.998
	c-5.923,4.41-10.076,10.588-15.998,14.999c1.034-2.632,3.965-3.368,4.999-6C238.404,46.706,245.578,38.57,244.896,29.629z"/>
<path fill-rule="evenodd" clip-rule="evenodd" fill="#38261E" d="M211.901,2.633c10.94-2.933,20.231,4.425,17.997,17.998
	c4.394-0.466,11.402,0.828,13.998,5c0,0.333,0,0.667,0,1c-2.728,0.728-2.012-1.987-3.999-2c-1.398-4.051-7.972-1.994-9.999-3
	c-2.154-0.845,0.375-6.374-1.999-6.999c-1.167-6.167-4.805-9.861-10.999-10.999C217.068,1.464,213.353,3.18,211.901,2.633z"/>
<path fill-rule="evenodd" clip-rule="evenodd" fill="#38261E" d="M209.901,1.633c-0.354,1.313-1.761,1.573-2,3
	c-2.279-0.279-3.759,0.241-3.999,2c-9.193,5.805-17.308,12.689-29.997,14.998c-1.999,0-3.999,0-5.999,0s-3.999,0-5.999,0
	c-2.675-0.992-5.272-2.06-8.999-2c-3.66-1.338-6.184-3.814-9.999-4.999c-3.181-2.818-7.552-4.446-13.998-4
	c-1.349,1.984-6.98-0.315-6.999,3c-0.333,0-0.667,0-1,0c-1.313-0.354-1.572-1.76-3-2c-0.333,0-0.667,0-1,0
	c-9.764-5.821-18.97,3.692-26.997,6c-8.545,3.039-20.015,1.885-27.996-1C53.398,11.821,46.9,4.987,36.922,1.633
	c-0.851,0.184-0.943-0.39-1-1C53.745,4.83,60.629,17.778,78.917,17.631c10.644-0.086,18.574-9.672,28.997-9.999
	c4.245-0.133,8.908,3.931,12.998,4c4.814,0.081,9.16-4.099,12.999-4c7.738,0.2,13.424,7.78,20.997,9.999
	C178.153,24.441,192.149,8.384,209.901,1.633z"/>
<path fill-rule="evenodd" clip-rule="evenodd" fill="#954C1D" d="M20.924,19.63c3.702,0.19,7.796-14.906,5-13.998
	c1.277-3.389,6.333-2.999,8.999-5c0.333,0,0.667,0,1,0c0.057,0.61,0.149,1.184,1,1c1.984,2.306-0.251,1.111-1,3
	c3.35,0.975,10.833,6.342,10.999,9.999c7.34-0.083,8.673,2.225,14.999,2c7.981,2.885,19.451,4.039,27.996,1
	c0.17,2.766-1.536,3.433-3,2c0.777,0.89,1.075,2.258,1,4c9.04-2.659,18.036-6.385,23.997-2c-1.772,0.228-5.007-1.008-4,2
	c3.854-1.793,10.159,1.739,11.999-2c-0.241-2.578-1.72,1.373-4,0c0.364-9.462-1.079,0.703,4.999-2c0-1,0-2,0-3
	c1.357,0.31,0.83,2.503,1,4c3.748-0.789,0.063-3.497,2-5c0.666,0,1.333,0,2,0c1.451,3.215,8.398,0.933,10.998,3
	c3.466-0.737-3.916-3.811-1-4c-0.685-0.987-6.313-0.319-6.999-4c6.446-0.447,10.817,1.182,13.998,4
	c-1.614-0.282-1.721,0.945-2.999,1c0.31,1.357,2.503,0.83,3.999,1c1.666,1.987-0.09,1.271,0,4c2.047-2.132,6.228,0.991,8.999-1
	c3.727-0.06,6.324,1.008,8.999,2c0.19,0.81,1.003,0.997,1,2c-10.061-0.033-25.256,0.773-32.996,0c-1.31-0.131-3.946,4.041-2,0
	c-3.09,3.189-1.689-0.009-5.999,0c2.157,1.836,1.952,2.493,1,5c-5.385,0.478-8.307-0.458-10.999,1c-0.333,0-0.667,0-1,0
	c0-0.333,0-0.667,0-1c-4.937,1.396-11.69,0.975-17.998,1c0-1,0-2,0-3c-6.606,1.069-7.874-0.365-14.998,2
	c-3.129-0.204-7.34,0.674-8.999-1c1.241-4.537,2.908,1.728,5-1c-6.829-4.837-10.005,1.442-14.999,1c-2.391-0.565,2.422-2.856,3-1
	c-5.009-3.849-12.668-1.408-18.998-1c-1.531,0.099-8.197-3.836-6.999,2c-1.825-3.986-6.248-0.877-6.999,2
	c-0.851,0.184-0.943-0.39-1-1c0.535,2.55-3.995,2.526-4.999-1C27.597,26.826,21.506,21.622,20.924,19.63z M102.914,26.63
	c4.895,0.021,9.645,2.919,12.999-1C110.261,27.774,106.656,23.32,102.914,26.63z"/>
<path fill-rule="evenodd" clip-rule="evenodd" fill="#804822" d="M89.916,17.631c8.027-2.308,17.233-11.821,26.997-6
	c-1.377,1.001,0.426,1.648-2,3c0.226,1.44,2.984,0.349,3,2c2.231-0.147-1.297-2.519,0-5c1.427,0.24,1.687,1.646,3,2c0,1,0,2,0,3
	s0,2,0,3c-6.078,2.703-4.635-7.462-4.999,2c-1.333,0-2.667,0-4,0c-5.961-4.385-14.958-0.66-23.997,2c0.075-1.741-0.223-3.109-1-4
	C88.38,21.063,90.085,20.397,89.916,17.631z"/>
<path fill-rule="evenodd" clip-rule="evenodd" fill="#804822" d="M36.922,1.633C46.9,4.987,53.398,11.821,61.919,16.631
	c-6.326,0.226-7.658-2.083-14.999-2c-0.165-3.657-7.649-9.024-10.999-9.999C36.671,2.744,38.907,3.938,36.922,1.633z"/>
<path fill-rule="evenodd" clip-rule="evenodd" fill="#804822" d="M128.911,10.632c0.686,3.681,6.314,3.013,6.999,4
	c-2.916,0.188,4.466,3.262,1,4c-2.6-2.067-9.547,0.215-10.998-3c0-1,0-2,0-3c-2.09-0.423-2.648,0.686-4,1
	C121.93,10.317,127.562,12.616,128.911,10.632z"/>
<path fill-rule="evenodd" clip-rule="evenodd" fill="#804822" d="M122.912,28.629c0.952-2.506,1.157-3.163-1-5
	c4.31-0.009,2.909,3.189,5.999,0c-1.946,4.041,0.69-0.131,2,0c7.74,0.773,22.936-0.033,32.996,0c1.666,0,3.333,0,4.999,0
	c3.039-0.627,8.612,1.28,9.999-1c4.196,0.018,6.934,1.697,8.999-1c5.106,5.634,19.628-2.289,28.996,5.999
	c-0.187-0.165-0.783,0.132-1,0c-2.007-0.34-3.128,0.205-2.999,2c-9.035-2.748-12.506-0.25-21.998-1
	c-2.305,0.944-3.224,0.065-6.999,1c0-0.333,0-0.667,0-1c-5.972-0.109-7.45,0.399-10.998,1c-0.334,0-0.667,0-1,0
	c-2.378-1.66-11.621-1.66-13.998,0c-1.667,0-3.333,0-5,0C142.978,27.143,133.049,27.735,122.912,28.629z"/>
<path fill-rule="evenodd" clip-rule="evenodd" fill="#804822" d="M28.923,29.629c0.751-2.877,5.174-5.986,6.999-2
	c-1.198-5.836,5.468-1.901,6.999-2c6.33-0.408,13.989-2.849,18.998,1c-0.578-1.857-5.391,0.434-3,1
	c4.993,0.442,8.169-5.836,14.999-1c-2.092,2.728-3.758-3.538-5,1c1.659,1.674,5.87,0.796,8.999,1c2.713,0.619,7.935-1.27,8.999,1
	c-3.666,0-7.333,0-10.999,0c-8.851-0.519-16.094,0.571-23.997,1c-0.887-4.079-7.959,1.339-7.999-3c-1.257,0.248-1.008,1.988,0,2
	c0,0.333,0,0.667,0,1c-4.685,0.647-11.973-1.308-14.998,1c-2.332,19-0.334,42.327-1,62.992c-2.329-12.002-0.336-28.327-1-41.995
	C27.748,45.118,24.977,34.015,28.923,29.629z"/>
<path fill-rule="evenodd" clip-rule="evenodd" fill="#A25421" d="M25.924,5.632c2.797-0.908-1.298,14.188-5,13.998
	C18.016,14.043,22.064,7.692,25.924,5.632z"/>
<path fill-rule="evenodd" clip-rule="evenodd" fill="#804822" d="M209.901,1.633c0.81,0.19,0.996,1.003,2,1
	c1.452,0.547,5.167-1.168,4.999,1c-2,0-4,0-5.999,0c-1.615-0.281-1.722,0.945-3,1C208.14,3.206,209.547,2.946,209.901,1.633z"/>
<path fill-rule="evenodd" clip-rule="evenodd" fill="#A25421" d="M203.902,6.632c2.23,0.147-1.298,2.519,0,4.999
	c1.146-1.2,2.534-0.39,1,0c-0.169,2.168,3.546,0.453,4.999,1c-2.382-1.444-2.454-1.517-3-3c0.354-1.567,1.761,0.875,2-1
	c-0.73,3.219,3.938-0.587,5.999,0c1.712,0.718-1.651,8.123-3.999,5c0.294,2.039,2.705,1.96,2.999,4c1.786-1.242-0.775-2.908,1-5
	c1.787-0.282,2.052,0.945,1,1c-0.934,0.294-0.934,2.706,0,3c-4.806,5.083-7.146,2.274-12.998,5c1.722-0.944,1.637-3.696,4.999-3
	c-1.852-3.367,0.258-0.118,2-2c-0.354-1.313-1.761-1.573-2-3c-1.135,0.19-0.555,1.003,0,1c-3.472,0.735-1.76,4.802-3.999,1
	c-4.216,1.578,2.181,3.577-2,6c1.135-2.635-10.194,0.981-14.998,0c-2.065,2.697-4.803,1.018-8.999,1c-1.583-0.083-3.813,0.48-4-1
	C186.594,19.322,194.708,12.438,203.902,6.632z"/>
<path fill-rule="evenodd" clip-rule="evenodd" fill="#A25421" d="M210.901,3.632c1.999,0,3.999,0,5.999,0
	c6.194,1.138,9.832,4.833,10.999,10.999c0,1,0,2,0,3c-3.164,1.374-3.343,0.218-7,0c0.561-2.078,1.561-2.119,3-1
	c-1.008-1.992-2.498-3.501-3.999-5c-0.51,0.309-1.929,3.473,0.999,3c-0.11,3.541-3.306-2.125-2.999,1
	c-0.814-2.15-0.289-6.796-3-7.999c0.56-2.078,1.56-2.118,3-1C218.296,2.903,211.654,6.212,210.901,3.632z M218.9,6.632
	c2.683,2.519,1.956,3.072,5.999,6.999C226.989,11.328,220,5.615,218.9,6.632z"/>
<path fill-rule="evenodd" clip-rule="evenodd" fill="#954C1D" d="M224.899,13.631c-4.043-3.927-3.316-4.48-5.999-6.999
	C220,5.615,226.989,11.328,224.899,13.631z"/>
<path fill-rule="evenodd" clip-rule="evenodd" fill="#954C1D" d="M210.901,3.632c0.753,2.58,7.396-0.729,6.999,3
	c-1.44-1.119-2.44-1.078-3,1c2.711,1.203,2.186,5.849,3,7.999c-0.307-3.125,2.889,2.542,2.999-1c-2.928,0.473-1.509-2.691-0.999-3
	c1.501,1.498,2.991,3.008,3.999,5c-1.439-1.119-2.439-1.078-3,1c3.657,0.218,3.836,1.374,7,0c0-1,0-2,0-3
	c2.374,0.625-0.155,6.154,1.999,6.999c2.027,1.006,8.601-1.052,9.999,3c-0.804-0.529-1.623-1.043-3-1c-0.538,4.538,5.329,2.67,5,7
	c1.229-0.437,2.054-1.28,1.999-3c0.973,0.028,0.776,1.224,1,2c0.682,8.941-6.492,17.077-12.998,21.997
	c-0.12-1.63-4.264,0.954-3.999,3c-2.091,0.424-2.648-0.685-4-1c0.16-8.249,6.929-12.11,7.999-17.998c-0.56-2.258-1.56,1.212-3-1
	c1.2,1.313,0.391,1.573,0,3c0.851,0.184,0.943-0.39,1-1c0.622,6.46-8.14-9.292-1.999-3c-0.777-0.89-1.075-2.258-1-4
	c-0.891,0.776-2.258,1.075-4,1c1.666,1.987-0.09,1.271,0,3.999c-2.921-0.905-0.29-3.681-2-3.999c0.914-1.115,1.859-0.315,5-1
	c-0.756-2.276-1.399-3.874,1-6c-5.191-0.929-2.207-7.143-9.999-6.999c4.81,3.242-9.147,1.92-5.999,6.999
	c3.32-4.419,3.96,4.243,12.998,2c-2.396,0.807-11.068,4.761-8.999,2c0.217,0.132,0.813-0.165,1,0
	c-9.368-8.288-23.89-0.365-28.996-5.999c4.804,0.981,16.133-2.635,14.998,0c4.181-2.422-2.216-4.422,2-6
	c2.239,3.803,0.527-0.265,3.999-1c-0.555,0.003-1.135-0.81,0-1c0.239,1.427,1.646,1.687,2,3c-1.742,1.882-3.852-1.367-2,2
	c-3.362-0.697-3.277,2.055-4.999,3c5.853-2.725,8.192,0.083,12.998-5c-0.934-0.294-0.934-2.706,0-3c1.052-0.055,0.787-1.282-1-1
	c-1.775,2.091,0.786,3.758-1,5c-0.294-2.039-2.705-1.961-2.999-4c2.348,3.124,5.711-4.282,3.999-5c-2.061-0.587-6.729,3.219-5.999,0
	c-0.239,1.875-1.646-0.567-2,1c0.546,1.483,0.618,1.556,3,3c-1.453-0.547-5.168,1.168-4.999-1c1.534-0.39,0.146-1.2-1,0
	c-1.298-2.48,2.23-4.852,0-4.999c0.24-1.759,1.72-2.279,3.999-2C209.179,4.578,209.286,3.351,210.901,3.632z M238.897,38.628
	c-0.434,4.131-4.621,6.443-10.998,8.999c-0.28,2.279,0.24,3.759,1.999,4C233.667,47.49,239.099,45.741,238.897,38.628z
	 M229.898,24.63c-7.147-2.274-0.539,8.034,0,8.999c0.24-1.875,1.646,0.567,2-1C228.917,30.272,226.981,28.119,229.898,24.63z
	 M232.898,26.63c-2.063,2.708-0.875-2.286-2-2c-0.239,1.427-1.646,1.687-2,3c1.428,0.24,1.687,1.646,3,2
	c0.212-1.122,1.109-1.557,2-2c1.993,5.215-0.836,4.846,0,7.999c2.214-2.187,0.883,1.895,2,3c-3.594,1.368,0.51,0.771,0.999-1
	c0.36-1.303-3.696-6.878,1-4c0-0.667,0-1.333,0-2c-0.057-0.61-0.149-1.184-1-1C234.193,32.783,236.865,26.94,232.898,26.63z"/>
<path fill-rule="evenodd" clip-rule="evenodd" fill="#954C1D" d="M116.913,11.631c0.333,0,0.667,0,1,0c-1.297,2.48,2.231,4.853,0,5
	c-0.015-1.651-2.773-0.56-3-2C117.339,13.28,115.536,12.633,116.913,11.631z"/>
<path fill-rule="evenodd" clip-rule="evenodd" fill="#A25421" d="M214.9,27.629c-2.069,2.762,6.603-1.192,8.999-2
	c-9.038,2.243-9.678-6.419-12.998-2c-3.148-5.079,10.809-3.757,5.999-6.999c7.792-0.144,4.808,6.07,9.999,6.999
	c-2.399,2.126-1.756,3.724-1,6c-3.141,0.685-4.086-0.115-5,1c1.71,0.318-0.921,3.094,2,3.999c-0.09-2.728,1.666-2.012,0-3.999
	c1.742,0.075,3.109-0.224,4-1c-0.075,1.742,0.223,3.109,1,4c-6.141-6.292,2.621,9.46,1.999,3c-0.057,0.61-0.149,1.184-1,1
	c0.391-1.427,1.2-1.687,0-3c1.44,2.212,2.44-1.258,3,1c-1.07,5.888-7.839,9.749-7.999,17.998c1.352,0.314,1.909,1.423,4,1
	c-0.265-2.046,3.879-4.63,3.999-3c-1.034,2.632-3.965,3.368-4.999,6c-16.505,17.498,3.257,33.889,2.999,52.993
	c-1.688-1.977-1.092-6.241-1.999-8.999c-1.172,0.162-0.844,1.823-1,3c-1.198-4.957-4.451-5.624-6-9.999
	c-3.263,2.023-5.063-4.521-6.999-6.999c-0.647-4.685,1.308-11.973-1-14.998c0-0.667,0-1.333,0-2c2.289-1.711,0.367-7.632,1-10.999
	c-0.826-2.826,1.409-2.59,1-5c2.313-3.687,0.349-11.65,1-16.998c0-0.667,0-1.333,0-2c0.89-0.776,2.258-1.075,4-1
	c-1.2-1.313-0.391-1.572,0-3c-4.247-1.247-2.674,3.326-5,4c-2.095-0.904-0.355-5.644-2.999-5.999
	C211.772,27.834,212.893,27.29,214.9,27.629z"/>
<path fill-rule="evenodd" clip-rule="evenodd" fill="#954C1D" d="M213.9,87.622c1.936,2.478,3.736,9.022,6.999,6.999
	c1.549,4.375,4.802,5.042,6,9.999c0.156-1.177-0.172-2.838,1-3c0.907,2.758,0.311,7.022,1.999,8.999c0,0.333,0,0.667,0,1
	c-1.172,0.161-0.843,1.823-1,3c-0.804-0.529-1.623-1.043-2.999-1c-2.259,0.56,1.212,1.56-1,3c-2.182,0.637-3.181-2.834-3,1
	c-3.509-0.274,2.509-3.725-1-4c0.354-1.4,1.761-0.086,2,1c-0.033-1.813,1.334-6.108,2-9.999c-3.909,3.423-7.217,7.448-8.999,12.998
	c-2.715,0.715,0.716-4.715-2-4c0-0.333,0-0.667,0-1c1.657-1.4,1.657-9.599,0-10.999c-0.547-1.453,1.169-5.167-1-4.999
	c0-3,0-6,0-8.999C213.234,87.622,213.567,87.622,213.9,87.622z M217.9,97.621c-2.186,3.239,0.397,5.86,4.999,7
	c0.225-1.891-1.127-2.206-1-4c1.742,3.042,3.852-2.729,2,0C217.816,100.261,219.799,102.018,217.9,97.621z"/>
<path fill-rule="evenodd" clip-rule="evenodd" fill="#954C1D" d="M214.9,35.628c2.326-0.674,0.753-5.246,5-4
	c-0.391,1.427-1.2,1.687,0,3c-1.742-0.075-3.11,0.224-4,1c0,0.667,0,1.333,0,2c-0.333,0-0.667,0-1,0
	C214.9,36.962,214.9,36.295,214.9,35.628z"/>
<path fill-rule="evenodd" clip-rule="evenodd" fill="#A25421" d="M229.898,51.626c-1.759-0.241-2.279-1.72-1.999-4
	c6.377-2.556,10.564-4.868,10.998-8.999C239.099,45.741,233.667,47.49,229.898,51.626z"/>
<path fill-rule="evenodd" clip-rule="evenodd" fill="#A25421" d="M231.898,32.629c-0.354,1.567-1.76-0.875-2,1
	c-0.539-0.965-7.147-11.273,0-8.999C226.981,28.119,228.917,30.272,231.898,32.629z"/>
<path fill-rule="evenodd" clip-rule="evenodd" fill="#A25421" d="M236.897,30.629c0.851-0.184,0.943,0.39,1,1c0,0.667,0,1.333,0,2
	c-4.696-2.878-0.64,2.696-1,4c-0.489,1.771-4.593,2.368-0.999,1c-1.117-1.105,0.214-5.187-2-3c-0.836-3.153,1.993-2.784,0-7.999
	c-0.891,0.443-1.788,0.878-2,2c-1.313-0.354-1.572-1.76-3-2c0.354-1.313,1.761-1.572,2-3c1.125-0.286-0.063,4.708,2,2
	C236.865,26.94,234.193,32.783,236.897,30.629z"/>
<path fill-rule="evenodd" clip-rule="evenodd" fill="#38261E" d="M185.904,217.606c8.22-2.644,20.73,0.245,25.997-3
	c0.02-57.351-0.015-123.3,0-183.977c-4.673-2.31-17.71,2.986-21.998-2c9.492,0.75,12.963-1.748,21.998,1
	c2.644,0.355,0.904,5.095,2.999,5.999c0,0.667,0,1.333,0,2c0,5.666,0,11.332,0,16.998c0.409,2.409-1.826,2.173-1,5
	c-2.288,1.711-0.366,7.632-1,10.999c0,0.667,0,1.333,0,2c0,5,0,9.999,0,14.998c0,3,0,5.999,0,8.999
	c0.647,4.685-1.307,11.973,1,14.998c0,0.333,0,0.667,0,1c0,0.333,0,0.667,0,1c-0.611,5.025,0.939,11.819,0,13.998
	c0,5,0,9.999,0,14.998c0,3,0,6,0,8.999c-1.383,2.903-0.119,2.594,0,6.999c-1.66,2.706-1.66,12.293,0,14.998c0,3,0,6,0,8.999
	c-1.919,10.732,1.879,23.014-1,35.996c-3.055,0.722-3.644-1.022-5.999-1c-3.333,0-6.666,0-9.998,0
	C193.236,217.606,189.57,217.606,185.904,217.606z"/>
<path fill-rule="evenodd" clip-rule="evenodd" fill="#954C1D" d="M43.921,30.629c0-0.333,0-0.667,0-1c-1.008-0.012-1.257-1.752,0-2
	c0.04,4.339,7.112-1.079,7.999,3C49.254,30.629,46.588,30.629,43.921,30.629z"/>
<path fill-rule="evenodd" clip-rule="evenodd" fill="#804822" d="M115.913,25.63c-3.354,3.919-8.104,1.021-12.999,1
	C106.656,23.32,110.261,27.774,115.913,25.63z"/>
<path fill-rule="evenodd" clip-rule="evenodd" fill="#954C1D" d="M4.926,40.628c0.973-0.027,0.776-1.224,1-2
	c1.661,3.005,3.425,5.907,6.999,6.999c1.654-3.915-5.321-8.248,1-12.999c-2.004,1.662-4.647,2.685-5,6
	c-0.509,5.207-1.363-7.011,2-8.999c3.657,0.658,3.835-2.164,6.999-2c-2.394,2.894,4.697,2.707,5.999,5
	c-4.661,1.954-5.412,3.551-6.999,8.999c2.629,2.599,0.787-1.616,4-1c1.976,2.323,1.976,2.677,0,5c1.173-2.472,4.155,2.426,4-2
	c3.506,0.272-1.806,4.428,1,4c-0.87,2.953-1.497-2.32-4-1c1.114,3.582-4.719,7.581,0,11.999c3.987-1.846,1.88-3.927,3-8.999
	c1.44,0.226,0.349,2.984,2,3c0.664,13.667-1.33,29.993,1,41.995c0,1.667,0,3.333,0,5c-2.294,2.038-0.362,8.304-1,11.999
	c-0.426,3.284-4.893,7.714-2,10.999c0.443-1.454,0.878,0.102,2,0c0,1.667,0,3.333,0,4.999c-2.933,1.4,0.933,9.599-2,10.999
	c0.443,1.453,0.878-0.102,2,0c0,0.667,0,1.333,0,2c-3.954,0.744-4.448,3.065-2,2.999c-2.525,2.754-3.962,5.054-3,8.999
	c-2.442-2.534-2.13,2.108-6,1c2.391-3.173-2.527,0.217-2-4.999c1.313,1.199,1.573,0.39,3,0c-3.655-2.3-2.625-4.427,0-6.999
	c-3.614,3.32-4.773-1.876-6.999-3c3.311-7.964,2.182-11.582,0-19.998c-0.785-4.118,1.535-5.131,1-8.999
	c0.455-8.554,8.914-14.403,6.999-21.997c-0.163-1.163,0.221-1.779,1-2c-0.184,0.851,0.39,0.943,1,1
	c-0.875-4.258,3.062-8.87,0-11.999c0-0.333,0-0.667,0-1C20.479,57.071,6.699,54.854,4.926,40.628z M16.925,106.62
	c0.003-0.555-0.81-1.135-1,0c1.322,0.012,0.914,1.752,2,2c0.239-1.875,1.646,0.567,2-1c-3.351-4.25,2.589-2.428,3-5
	C18.142,100.4,20.628,103.387,16.925,106.62z"/>
<path fill-rule="evenodd" clip-rule="evenodd" fill="#A25421" d="M26.924,127.617c-0.184,0.851,0.39,0.943,1,1c0,1,0,2,0,3
	c-2.235,0.431-0.405,4.928-1,6.999c-1.122-0.102-1.557,1.453-2,0C27.856,137.215,23.991,129.017,26.924,127.617z"/>
<path fill-rule="evenodd" clip-rule="evenodd" fill="#A25421" d="M26.924,140.616c0,2.666,0,5.332,0,7.999
	c-2.909-0.87-1.125-1.497-1-4c-2.078,1.119-2.119,1.078-1-1C22.476,143.681,22.97,141.36,26.924,140.616z"/>
<path fill-rule="evenodd" clip-rule="evenodd" fill="#B14B13" d="M9.926,138.616c2.226,1.124,3.385,6.32,6.999,3
	c-2.625,2.572-3.655,4.699,0,6.999c-1.427,0.39-1.687,1.199-3,0c-0.527,5.216,4.39,1.826,2,4.999c3.869,1.108,3.557-3.534,6-1
	c-0.962-3.945,0.475-6.245,3-8.999c-1.119,2.078-1.078,2.119,1,1c-0.125,2.503-1.909,3.13,1,4c0,0.333,0,0.666,0,1
	c-1.663,4.025-1.663,14.972,0,18.997c0.525,7.318-1.738,8,0,12.998c0,0.334,0,0.667,0,1c-2.485,8.639-1.195,20.085-2,27.997
	c-2.702-2.529-4.529-0.14-5.999-3c-1.457,4.203-2.077,7.889-4,13.998c-1.333,0-2.667,0-4,0c-10.807-1.957-9.854-16.176-5-23.997
	c0.56-1.439,1.56-2.439,3-2.999c13.911-9.036,8.074-33.042,1-44.994C9.926,145.948,9.926,142.282,9.926,138.616z"/>
<path fill-rule="evenodd" clip-rule="evenodd" fill="#A25421" d="M26.924,52.626c-1.651-0.016-0.56-2.773-2-3
	c-1.119,5.071,0.987,7.152-3,8.999c-4.719-4.417,1.114-8.417,0-11.999c2.502-1.32,3.13,3.953,4,1c-2.806,0.428,2.506-3.728-1-4
	c0.155,4.426-2.827-0.472-4,2c1.976-2.323,1.976-2.677,0-5c-3.212-0.616-1.37,3.599-4,1c1.587-5.448,2.338-7.045,6.999-8.999
	c-1.302-2.293-8.393-2.105-5.999-5c-3.164-0.164-3.342,2.658-6.999,2c-3.363,1.988-2.509,14.206-2,8.999
	c0.352-3.314,2.995-4.338,5-6c-6.321,4.75,0.654,9.083-1,12.999c-3.574-1.092-5.338-3.994-6.999-6.999c-0.224,0.776-0.027,1.972-1,2
	c-3.079-8.764,8.666-16.646,17.998-12.999c1.004,3.526,5.534,3.55,4.999,1c0.057,0.61,0.149,1.184,1,1
	C24.977,34.015,27.748,45.118,26.924,52.626z"/>
<path fill-rule="evenodd" clip-rule="evenodd" fill="#38261E" d="M141.91,216.606c14.264-0.729,27.682-3.153,39.994,1
	c-1.333,0-2.666,0-3.999,0c-5.086,0.955-10.437-1.584-12.998,0c-1.567-0.354,0.875-1.761-1-2c-1.971,1.527-2.488,1.734-5,2
	c-3.333,0-6.665,0-9.998,0c-2.333,0-4.666,0-6.999,0C141.91,217.273,141.91,216.939,141.91,216.606z"/>
<path fill-rule="evenodd" clip-rule="evenodd" fill="#804822" d="M213.9,113.619c2.716-0.715-0.715,4.715,2,4
	c1.782-5.55,5.09-9.575,8.999-12.998c-0.666,3.89-2.033,8.186-2,9.999c-0.239-1.086-1.646-2.4-2-1c3.509,0.275-2.509,3.725,1,4
	c-0.181-3.833,0.818-0.362,3-1c2.212-1.44-1.259-2.44,1-3c1.376-0.043,2.195,0.471,2.999,1c0.157-1.177-0.172-2.838,1-3
	c1.298,2.48-2.23,4.852,0,5c0,0.333,0,0.667,0,1c-1.882,2.451-4.137,4.529-4.999,7.999c-3.347-0.903-0.873-2.236,0-4
	c-1.935-2.744-5.612-4.029-5.999,1c0,0.667,0,1.333,0,2c-0.807,0.859-2.739,0.594-3,1.999c-0.81,0.19-0.996,1.004-2,1
	C214.839,125.438,213.289,118.644,213.9,113.619z"/>
<path fill-rule="evenodd" clip-rule="evenodd" fill="#A25421" d="M223.899,100.621c1.852-2.729-0.258,3.042-2,0
	c-0.127,1.793,1.225,2.109,1,4c-4.602-1.139-7.185-3.761-4.999-7C219.799,102.018,217.816,100.261,223.899,100.621z"/>
<path fill-rule="evenodd" clip-rule="evenodd" fill="#804822" d="M22.924,102.62c-0.411,2.572-6.351,0.75-3,5
	c-0.353,1.567-1.76-0.875-2,1c-1.086-0.248-0.678-1.988-2-2c0.19-1.135,1.003-0.555,1,0C20.628,103.387,18.142,100.4,22.924,102.62z
	"/>
<path fill-rule="evenodd" clip-rule="evenodd" fill="#954C1D" d="M218.9,124.618c3.141,0.474,4.085-1.247,4.999-3
	c-1.793,0.127-2.108-1.224-3.999-1c0.162,1.163-0.221,1.779-1,2c0.387-5.029,4.064-3.744,5.999-1c-0.873,1.763-3.347,3.096,0,4
	c3.054,3.744,9.415,12.118,3.999,17.998c0.282-1.614-0.944-1.721-0.999-2.999c-0.229,1.377-2.13,3.67-2,7.999
	c2.059-0.275,0.941-3.726,2.999-4c-0.774,3.225-2.09,5.909-3.999,7.999c-2.596-3.801-3.384,2.521-5.999,2
	c0.431-3.78-4.85-4.855-2-7.999c-4.208-1.542-0.159,5.174-3,4.999c0-2.999,0-5.999,0-8.999c2.903-2.706,3.287-12.331,2-15.998
	C216.161,125.211,218.093,125.477,218.9,124.618z M221.899,145.615c-0.657-3.657,2.164-3.836,2-6.999
	c-0.677-1.105-3.322-5.187-3.999-3C223.19,137.092,216.14,142.188,221.899,145.615z"/>
<path fill-rule="evenodd" clip-rule="evenodd" fill="#804822" d="M223.899,198.608c2.48-1.297,4.853,2.231,4.999,0
	c1.122,0.212,1.557,1.11,2,2c-1.986-1.665-1.271,0.091-3.999,0c0.56,1.44,1.56,2.439,2.999,3c-0.027,0.972-1.224,0.775-1.999,1
	c2.149,1.995,2.283,4.673,2.999,9.998c-1.329,1.005-3.721,0.945-3.999,3c-0.667,0-1.333,0-2,0c-1.329,1.004-3.721,0.945-4,2.999
	c-2.299-0.788,1.721-3.497,2-4.999c-1.494,0.049-5.7,3.901-4.999,0c3.663,0.331,5.556-1.11,7.999-2
	C225.461,208.377,223.327,204.846,223.899,198.608z"/>
<path fill-rule="evenodd" clip-rule="evenodd" fill="#A25421" d="M228.898,144.615c-2.058,0.274-0.94,3.725-2.999,4
	c-0.13-4.329,1.771-6.622,2-7.999c0.055,1.278,1.281,1.385,0.999,2.999C228.898,143.949,228.898,144.282,228.898,144.615z"/>
<path fill-rule="evenodd" clip-rule="evenodd" fill="#804822" d="M219.9,135.616c0.677-2.187,3.322,1.895,3.999,3
	c0.164,3.163-2.657,3.342-2,6.999C216.14,142.188,223.19,137.092,219.9,135.616z"/>
<path fill-rule="evenodd" clip-rule="evenodd" fill="#954C1D" d="M31.923,216.606c3.582,3.688-3.758-0.426-1,2
	c-2.154,1.912-8.007-2.061-9.999,3.999c-0.127-1.793,1.224-2.108,1-3.999c-0.89,0.776-2.258,1.074-4,1
	c0.19,0.81,1.003,0.996,1,1.999c-1.793-0.127-2.109,1.225-4,1c-1.496-0.17-3.69,0.357-4-1c1.333,0,2.666,0,4,0
	c1.922-6.109,2.542-9.795,4-13.998c1.47,2.86,3.297,0.471,5.999,3C24.224,215.64,26.998,217.198,31.923,216.606z"/>
<path fill-rule="evenodd" clip-rule="evenodd" fill="#954C1D" d="M141.91,219.606 M148.909,217.606c3.333,0,6.665,0,9.998,0
	c0.694,0.782,5.579,2.226,6,0c2.562-1.584,7.912,0.955,12.998,0c-0.19,0.81-1.003,0.996-1,2c7.963-0.896,17.289,2.212,19.998-2
	c3.332,0,6.665,0,9.998,0c-1.116,1.229-0.87,2.054,1,2c-1.063,2.269-6.285,0.38-8.999,0.999c7.377,4.295,13.521,0.844,16.998-0.999
	c0.515-1.497,1.655-4.173,1-5c0.91-2.735,3.504,1.774,4.999-1c-1.286-2.256-4.783-2.912-1-4.999c-0.691-1.337-2.667,0.493-4.999-1
	c0.533-2.815-1.484-11.189,2-7.999c-2.66-2.815-0.034-5.716-2-7.999c3.604-2.29,1.435,3.703,4,5c2.555-2.622-0.528-8.089-4-7.999
	c0-3.333,0-6.666,0-9.999c-2.715-0.716,0.716,4.715-2,3.999c0-2.999,0-5.999,0-8.999c3.59-1.075,0.138-9.194,5-8.998
	c-1.97,3.614,0.724,7.252-3,7.999c2.467,7.477,5.193,17.654,7.999,25.996c-0.572,6.238,1.563,9.77,2,14.998
	c-2.443,0.89-4.336,2.331-7.999,2c-0.701,3.901,3.505,0.049,4.999,0c-0.279,1.502-4.299,4.211-2,4.999
	c0.279-2.054,2.671-1.995,4-2.999c-1.938,1.264,1.748,5.303-2,2.999c0.827,3.576,3.503-0.406,5,3c-4.676,0.342-6.508-2.158-9.999-3
	c-0.652,2.423-0.021,4.422,2,6c2.277,5.251,0.386,12.36-4,13.998c-0.7-3.078-0.7-1.922,0-4.999c-2.134-0.468-1.904,1.428-2,2.999
	c-4.855,1.481-22.764-3.253-16.997-2c0,0.334,0,0.667,0,1c-8.229-6.103-14.21-14.453-26.997-15.998
	c-1.078-1.654-8.921-1.654-9.999,0c-9.448,0.884-14.178,6.486-21.997,8.999c-4.995,0.817-1.547-2.128-1-3.999
	c-2.516,0.408-4.593,3.421-2.999,4.999c-7.448,0.449-12.474-1.524-14.999-5.999c-0.19-0.81-1.003-0.997-1-2
	c-1.874,4.592-9.394-0.593-4.999,4c-2.453,6.503-14.503,3.738-17.998,0c-0.557-2.442-3.869-2.131-3-6
	c4.871,0.673,6.632-1.76,9.999,0c-0.899-7.528-6.57-0.154-15.998-4.999c7.54,0.467,12.208-1.172,15.998,0
	c6.01,2.322,16.324,0.341,23.998,1c-0.19,0.81-1.004,0.996-1,2c4.032-1.284,6.761-0.08,11.998-3c1.667,0,3.333,0,5,0
	c0,0.333,0,0.667,0,1H148.909z M202.902,226.605c1.118-1.44,1.078-2.44-1-3c-0.691,1.337-2.667-0.493-4.999,1
	c0.143,3.808,0.106,6.241,0.999,6.999c-0.008-0.702,10.175,2.213,5,4c0.775,0.224,1.972,0.027,2,0.999
	c3.335,0.003,3.413-3.252,6.999-2.999c0.365-5.365-8.002-1.997-8.999-5.999c2.158,0.005,6.928,2.642,9.998,0.999
	c1.394,1.273,0.436,4.898,3,5c0.156-1.177-0.172-2.839,1-3c-0.003,0.556,0.81,1.135,1,0c-3.141-1.192-3.148-5.517-6.999-5.999
	c-2.213,1.439,1.259,2.439-1,3C207.994,225.561,205.559,225.598,202.902,226.605z"/>
<path fill-rule="evenodd" clip-rule="evenodd" fill="#A25421" d="M213.9,182.61c2.716,0.716-0.715-4.715,2-3.999
	c0,3.333,0,6.666,0,9.999c3.472-0.09,6.555,5.377,4,7.999c-2.565-1.297-0.396-7.29-4-5c1.966,2.283-0.66,5.184,2,7.999
	c-3.484-3.19-1.467,5.184-2,7.999c2.332,1.493,4.308-0.337,4.999,1c-3.783,2.087-0.286,2.743,1,4.999
	c-1.495,2.774-4.089-1.735-4.999,1c0.655,0.827-0.485,3.503-1,5c-3.478,1.843-9.621,5.294-16.998,0.999
	c2.714-0.619,7.936,1.27,8.999-0.999c-1.87,0.054-2.116-0.771-1-2c2.355-0.022,2.944,1.722,5.999,1
	C215.779,205.624,211.981,193.342,213.9,182.61z"/>
<path fill-rule="evenodd" clip-rule="evenodd" fill="#954C1D" d="M230.898,200.608c4.878,4.775,8.479,15.246,2,20.997
	c0-0.333,0-0.666,0-1c-0.89-0.776-2.258-1.074-4-0.999c-0.956,1.862,2.995,3.342,0,3.999c0.262-2.927-2.26-3.072-1.999-5.999
	c0.278-2.055,2.67-1.995,3.999-3c-0.716-5.325-0.85-8.003-2.999-9.998c0.775-0.225,1.972-0.028,1.999-1
	c-1.439-0.561-2.439-1.56-2.999-3C229.626,200.699,228.912,198.943,230.898,200.608z"/>
<path fill-rule="evenodd" clip-rule="evenodd" fill="#804822" d="M158.907,217.606c2.512-0.266,3.029-0.473,5-2
	c1.875,0.239-0.567,1.646,1,2C164.486,219.832,159.601,218.388,158.907,217.606z"/>
<path fill-rule="evenodd" clip-rule="evenodd" fill="#A25421" d="M224.899,217.606c0.667,0,1.333,0,2,0
	c-0.261,2.927,2.261,3.072,1.999,5.999c-0.333,0-0.666,0-0.999,0c-1.497-3.406-4.173,0.576-5-3
	C226.647,222.909,222.961,218.87,224.899,217.606z"/>
<path fill-rule="evenodd" clip-rule="evenodd" fill="#A25421" d="M209.901,227.605c2.259-0.561-1.213-1.561,1-3
	c3.851,0.482,3.858,4.807,6.999,5.999c-0.19,1.135-1.003,0.556-1,0c-1.172,0.161-0.844,1.823-1,3c-2.564-0.102-1.606-3.727-3-5
	c-3.07,1.643-7.84-0.994-9.998-0.999c0.997,4.002,9.364,0.634,8.999,5.999c-3.586-0.253-3.664,3.002-6.999,2.999
	c-0.028-0.972-1.225-0.775-2-0.999c5.175-1.787-5.008-4.702-5-4c-0.893-0.758-0.856-3.191-0.999-6.999
	c2.332-1.493,4.308,0.337,4.999-1c2.078,0.56,2.118,1.56,1,3C205.559,225.598,207.994,225.561,209.901,227.605z"/>
<path fill-rule="evenodd" clip-rule="evenodd" fill="#A25421" d="M196.903,237.603c0-0.333,0-0.666,0-1
	c-5.767-1.253,12.142,3.481,16.997,2c0.096-1.571-0.134-3.467,2-2.999c-0.7,3.077-0.7,1.921,0,4.999
	C209.974,244.633,200.208,242.031,196.903,237.603z"/>
<path fill-rule="evenodd" clip-rule="evenodd" fill="#804822" d="M112.913,227.605c-4.395-4.593,3.125,0.592,4.999-4
	c-0.003,1.003,0.81,1.19,1,2C116.201,222.878,116.423,228.191,112.913,227.605z"/>
<path fill-rule="evenodd" clip-rule="evenodd" fill="#B14B13" d="M20.924,222.605c1.992-6.06,7.845-2.087,9.999-3.999
	c-2.758-2.426,4.581,1.688,1-2c3.149-1.121,2.264-0.091,6,0c3.365,1.662,13.633,1.662,16.998,0c0.333,0,0.667,0,1,0
	c2.925,0.304,13.801,0.201,16.998,0c5.785-0.651,7.213-0.651,12.998,0c9.428,4.845,15.099-2.529,15.998,4.999
	c-3.367-1.76-5.127,0.673-9.999,0c-0.869,3.869,2.442,3.558,3,6c-25.012-13.253-47.335,5.836-60.992,18.997
	c-2.072-0.595-6.569,1.236-6.999-1c2.188-1.772-7.97-7.844-6-15.998C20.924,227.271,20.924,224.938,20.924,222.605z M40.922,236.603
	c-1.427-0.239-1.687-1.646-3-1.999c-1.646,1.675-0.214,6.638,2,4.999c-0.61-0.057-1.184-0.149-1-1
	C40.044,238.392,40.479,237.494,40.922,236.603z M31.923,240.603c1.745-2.039-0.745-1.961,1-4c-6.097-0.349-2.81-2.682-3-6.999
	C21.006,225.074,28.5,236.236,31.923,240.603z"/>
<path fill-rule="evenodd" clip-rule="evenodd" fill="#A25421" d="M136.91,216.606c-5.237,2.92-7.966,1.716-11.998,3
	c-0.004-1.004,0.81-1.19,1-2c1.419,0.086,2.831,0.165,2.999-1C131.578,216.606,134.244,216.606,136.91,216.606z"/>
<path fill-rule="evenodd" clip-rule="evenodd" fill="#A25421" d="M196.903,217.606c-2.709,4.212-12.035,1.104-19.998,2
	c-0.003-1.004,0.81-1.19,1-2c1.333,0,2.666,0,3.999,0c1.334,0,2.667,0,4,0C189.57,217.606,193.236,217.606,196.903,217.606z"/>
<path fill-rule="evenodd" clip-rule="evenodd" fill="#954C1D" d="M38.922,238.603c-0.184,0.851,0.39,0.943,1,1
	c-2.213,1.639-3.646-3.324-2-4.999c1.313,0.353,1.572,1.76,3,1.999C40.479,237.494,40.044,238.392,38.922,238.603z"/>
<path fill-rule="evenodd" clip-rule="evenodd" fill="#38261E" d="M18.925,221.605c0.003-1.003-0.81-1.189-1-1.999
	c1.742,0.074,3.11-0.224,4-1c0.224,1.891-1.127,2.206-1,3.999c0,2.333,0,4.666,0,6.999c-1.357-0.31-0.83-2.503-1-3.999
	c-1.313,0.353-1.572,1.76-3,2C16.664,224.677,19.186,224.533,18.925,221.605z"/>
<path fill-rule="evenodd" clip-rule="evenodd" fill="#954C1D" d="M29.923,229.604c0.19,4.317-3.098,6.65,3,6.999
	c-1.745,2.039,0.745,1.961-1,4C28.5,236.236,21.006,225.074,29.923,229.604z"/>
<path fill-rule="evenodd" clip-rule="evenodd" fill="#A25421" d="M121.912,13.631c1.352-0.314,1.91-1.423,4-1c0,1,0,2,0,3
	c-0.667,0-1.334,0-2,0c-1.938,1.502,1.748,4.21-2,5c-0.17-1.496,0.357-3.69-1-4c0-1,0-2,0-3
	C121.245,13.631,121.579,13.631,121.912,13.631z"/>
<path fill-rule="evenodd" clip-rule="evenodd" fill="#A25421" d="M142.909,14.631c3.815,1.185,6.339,3.661,9.999,4.999
	c-2.771,1.991-6.952-1.132-8.999,1c-0.09-2.728,1.666-2.013,0-4c-1.496-0.17-3.689,0.357-3.999-1
	C141.188,15.576,141.294,14.35,142.909,14.631z"/>
<path fill-rule="evenodd" clip-rule="evenodd" fill="#A25421" d="M161.907,21.63c2,0,3.999,0,5.999,0c0,0.667,0,1.333,0,2
	c-1.666,0-3.333,0-4.999,0C162.91,22.627,162.097,22.44,161.907,21.63z"/>
<path fill-rule="evenodd" clip-rule="evenodd" fill="#954C1D" d="M177.905,22.63c-1.387,2.28-6.96,0.373-9.999,1
	c0-0.667,0-1.333,0-2c2,0,4,0,5.999,0C174.091,23.111,176.322,22.547,177.905,22.63z"/>
<path fill-rule="evenodd" clip-rule="evenodd" fill="#A25421" d="M239.897,24.63c1.987,0.013,1.271,2.728,3.999,2
	c0,0.333,0,0.667,0,1c0.055,1.72-0.77,2.563-1.999,3c0.329-4.33-5.538-2.462-5-7C238.274,23.587,239.093,24.101,239.897,24.63z"/>
<path fill-rule="evenodd" clip-rule="evenodd" fill="#A25421" d="M92.916,29.629c-2,0-4,0-6,0c-1.063-2.27-6.285-0.381-8.999-1
	c7.124-2.364,8.392-0.931,14.998-2C92.916,27.629,92.916,28.629,92.916,29.629z"/>
<path fill-rule="evenodd" clip-rule="evenodd" fill="#A25421" d="M213.9,142.615c0-4.999,0-9.998,0-14.998
	c1.004,0.004,1.19-0.81,2-1C217.187,130.284,216.803,139.909,213.9,142.615z"/>
<path fill-rule="evenodd" clip-rule="evenodd" fill="#804822" d="M9.926,149.615c-1.657-1.4-1.657-9.599,0-10.999
	C9.926,142.282,9.926,145.948,9.926,149.615z"/>
<path fill-rule="evenodd" clip-rule="evenodd" fill="#804822" d="M26.924,149.615c0,3.999,0,7.999,0,11.998
	c1.283,1.313,1.283,3.686,0,4.999c0,0.667,0,1.334,0,2C25.261,164.586,25.261,153.64,26.924,149.615z"/>
<path fill-rule="evenodd" clip-rule="evenodd" fill="#A25421" d="M224.899,152.614c-5.824,15.399-4.565,33.547,3.999,45.994
	c-0.146,2.231-2.519-1.297-4.999,0c-2.806-8.342-5.532-18.52-7.999-25.996c3.724-0.747,1.03-4.385,3-7.999
	c-4.862-0.196-1.41,7.923-5,8.998c0-4.999,0-9.998,0-14.998c-0.119-4.405-1.383-4.096,0-6.999c2.841,0.175-1.208-6.541,3-4.999
	c-2.85,3.144,2.431,4.219,2,7.999C221.515,155.135,222.303,148.813,224.899,152.614z"/>
<path fill-rule="evenodd" clip-rule="evenodd" fill="#38261E" d="M31.923,216.606c-4.925,0.592-7.699-0.966-6.999-5.999
	c0.805-7.912-0.485-19.358,2-27.997c2.751,11.899-0.501,23.546,1,32.996c4.305-1.802,11.539-1.029,14.998,1
	c-1.666,0-3.333,0-4.999,0C34.187,216.515,35.072,215.485,31.923,216.606z"/>
<path fill-rule="evenodd" clip-rule="evenodd" fill="#804822" d="M42.921,216.606c4,0,7.999,0,11.999,0
	c-3.365,1.662-13.633,1.662-16.998,0C39.589,216.606,41.255,216.606,42.921,216.606z"/>
<path fill-rule="evenodd" clip-rule="evenodd" d="M17.925,237.603c-0.763-2.832-2.95-7.548-1-9.998c1.427-0.24,1.687-1.647,3-2
	c0.17,1.496-0.357,3.689,1,3.999c-1.97,8.154,8.187,14.226,6,15.998c-0.333,0-0.667,0-1,0
	C23.076,243.118,20.538,240.323,17.925,237.603z"/>
</svg>
